<?xml version="1.0" encoding="UTF-8" standalone="no"?>
<svg
   version="1.1"
   x="0px"
   y="0px"
   width="1000"
   height="261.759"
   viewBox="0 0 1000 261.75899"
   enable-background="new 0 0 300 115"
   xml:space="preserve"
   id="svg107"
   sodipodi:docname="Nickelodeon_Movies_2020.svg"
   inkscape:version="1.4 (86a8ad7, 2024-10-11)"
   xmlns:inkscape="http://www.inkscape.org/namespaces/inkscape"
   xmlns:sodipodi="http://sodipodi.sourceforge.net/DTD/sodipodi-0.dtd"
   xmlns="http://www.w3.org/2000/svg"
   xmlns:svg="http://www.w3.org/2000/svg"
   xmlns:rdf="http://www.w3.org/1999/02/22-rdf-syntax-ns#"
   xmlns:cc="http://creativecommons.org/ns#"
   xmlns:dc="http://purl.org/dc/elements/1.1/"><metadata
   id="metadata113"><rdf:RDF><cc:Work
       rdf:about=""><dc:format>image/svg+xml</dc:format><dc:type
         rdf:resource="http://purl.org/dc/dcmitype/StillImage" /></cc:Work></rdf:RDF></metadata><defs
   id="defs111">
	

		
		
	</defs><sodipodi:namedview
   pagecolor="#ffffff"
   bordercolor="#666666"
   borderopacity="1"
   objecttolerance="10"
   gridtolerance="10"
   guidetolerance="10"
   inkscape:pageopacity="0"
   inkscape:pageshadow="2"
   inkscape:window-width="1920"
   inkscape:window-height="991"
   id="namedview109"
   showgrid="false"
   inkscape:zoom="0.68"
   inkscape:cx="427.20588"
   inkscape:cy="152.94118"
   inkscape:window-x="-9"
   inkscape:window-y="-9"
   inkscape:window-maximized="1"
   inkscape:current-layer="svg107"
   inkscape:document-rotation="0"
   inkscape:pagecheckerboard="0"
   inkscape:showpageshadow="2"
   inkscape:deskcolor="#d1d1d1" />


<g
   id="g15070"><path
     id="path3453-6-0"
     style="fill:#ff6700;fill-opacity:1;stroke:none;stroke-width:2.3151"
     d="M 444.75032,18.780778 V 143.20082 h 37.67123 V 18.780122 C 482.42155,8.4483064 473.74425,-3.2815648e-4 463.47034,0 452.96801,3.8286993e-4 444.75032,8.4516427 444.75032,18.780778 Z M 110.04422,6.5742596 c -3.88129,3.7560794 -6.16293,9.1532624 -6.16293,14.7873254 0,5.868867 2.39727,10.919178 6.16293,14.791155 l 4.56622,4.695126 c 7.64605,7.861928 8.10015,9.739147 0.91379,17.134806 l -4.10741,4.227052 c -3.42311,3.522808 -5.48017,8.214871 -5.48017,13.379494 v 67.611222 h 37.89884 V 75.589218 c 0,-5.164623 -2.17269,-9.975045 -5.48018,-13.379494 l -4.10734,-4.227763 c -7.30194,-7.515986 -6.73565,-9.273042 0.91041,-17.134806 l 4.56623,-4.695072 c 3.76576,-3.871976 6.16655,-8.922287 6.16655,-14.791154 0,-5.868812 -2.28529,-11.031246 -6.16655,-14.7873258 C 135.84332,2.8175789 130.82048,0.46698028 124.88439,0.46736314 119.17666,0.4676913 113.92552,2.8182352 110.04422,6.5742596 Z M 325.60256,47.337513 c -6.68566,-0.253782 -13.44594,3.031434 -16.92821,9.237819 L 291.5511,87.093461 v -20.42221 c 0,-10.329135 -8.44607,-18.78045 -18.72003,-18.78045 -10.50234,0 -18.72003,8.451315 -18.72003,18.78045 v 76.529409 h 37.67118 v -29.81235 l 19.86164,29.81235 h 30.36672 c 3.44186,0 6.1629,-2.81862 6.1629,-6.57464 0,-1.17462 -0.22184,-2.46923 -0.91395,-3.52128 L 326.7116,101.8845 341.09664,75.827466 c 5.00283,-9.062141 2.25796,-20.616703 -6.62174,-25.823057 -2.80731,-1.645971 -5.83337,-2.551491 -8.87234,-2.666896 z M 14.612585,62.915008 C 5.7662453,71.892974 0,84.274733 0,97.890616 V 143.19962 H 37.671226 V 98.829608 c 0,-5.399261 1.286596,-10.142135 3.424669,-13.613421 2.200955,-3.5734 5.021395,-5.634994 8.446037,-5.634994 3.424669,0 6.166502,2.113554 8.449668,5.634994 2.283057,3.521276 3.424642,8.21416 3.424642,13.613421 V 143.19896 H 99.087488 V 97.889959 c 0,-13.615882 -5.593765,-26.17775 -14.612599,-35.213418 C 75.684037,53.869275 63.240572,48.357399 49.541932,48.357781 35.843313,48.35811 23.346532,54.051134 14.612585,62.915008 Z M 198.63017,48.35811 c -13.69864,0 -26.25641,5.636196 -35.16055,14.556898 -8.90409,8.920756 -14.49558,21.596169 -14.3814,35.213309 0.11414,13.615223 5.46195,26.307863 14.3814,35.213193 6.834,6.82323 18.72216,14.55324 35.16055,14.55324 12.10039,0 23.4765,-4.50447 32.19103,-11.97161 6.35425,-5.44471 15.52441,-16.19751 17.35088,-33.09981 h -37.89882 c -0.45681,4.22557 -1.57585,7.99243 -3.19707,11.03207 -2.26023,4.23782 -5.02139,6.57464 -8.44602,6.57464 -3.42467,0 -6.16301,-2.34901 -8.44609,-6.57464 -2.28313,-4.22563 -3.42462,-9.62353 -3.42462,-15.727083 0,-6.103669 1.32894,-11.76147 3.42462,-15.730912 2.24239,-4.247398 5.02142,-6.570923 8.44609,-6.570923 3.42463,0 6.18574,2.333096 8.44602,6.570923 1.62129,3.039747 2.74048,6.810211 3.19707,11.035786 h 37.67121 C 246.80286,81.695348 241.5476,70.903007 233.5631,62.915008 224.6526,54.000596 212.10048,48.35811 198.63017,48.35811 Z m 716.66734,14.323572 c -8.96068,8.863874 -14.38494,21.362788 -14.38494,35.213419 v 45.305229 h 37.44369 V 98.596337 c 0,-5.399371 1.28707,-10.142464 3.42441,-13.613531 2.20057,-3.573728 5.02165,-5.634939 8.44628,-5.634939 3.42469,0 6.16646,2.113444 8.44962,5.634939 2.283,3.521277 3.42463,8.21416 3.42463,13.613531 V 143.19967 H 1000 V 97.656633 c 0,-13.615882 -5.53643,-26.235507 -14.61241,-35.213419 -8.96074,-8.863873 -21.45916,-14.319142 -34.9295,-14.318813 -13.69858,3.28e-4 -26.08449,5.579369 -35.16058,14.557281 z M 392.4665,48.124237 c -13.69863,0 -26.08444,5.575376 -35.16056,14.553233 -8.96076,8.86371 -14.61258,21.597482 -14.61258,35.213364 0,13.615716 5.53415,26.237526 14.61258,35.213086 8.73018,8.63126 21.00457,14.55712 35.38812,14.55712 14.61192,0 27.31056,-6.22121 35.16056,-14.79105 10.65631,-11.63359 10.95673,-24.64926 10.95673,-24.64926 h -33.56022 c 0,0 -4.56623,11.73768 -12.55707,11.73768 -3.42468,0 -6.12781,-2.36444 -8.44607,-6.57092 -1.56322,-2.83656 -2.51215,-6.3399 -3.19706,-10.09598 h 58.44676 c 0,0 4.21414,-24.046468 -11.87068,-40.142356 C 418.14009,53.655749 406.16508,48.124237 392.4665,48.124237 Z M 381.50609,88.97254 c 0.68496,-2.817087 1.57371,-5.412005 2.51072,-7.514292 1.57432,-3.532051 5.02502,-6.570868 8.44969,-6.571142 3.42462,-2.18e-4 6.21792,2.315759 8.44606,6.571142 0.96892,1.850529 1.82647,4.93343 2.28307,7.280801 z M 744.51985,48.124729 c -13.69869,0 -26.02515,5.632478 -34.92939,14.553234 -8.90424,8.920701 -14.61247,21.597536 -14.61247,35.213418 0,13.615709 5.70681,26.293969 14.61247,35.213029 8.6743,8.68743 21.00476,14.55712 35.38822,14.55712 14.84011,0 27.30691,-6.22121 35.15681,-14.79099 10.65637,-11.63365 10.96053,-24.64932 10.96053,-24.64932 h -33.56034 c 0,0 -4.5661,11.73768 -12.557,11.73768 -3.42469,0 -6.13173,-2.36438 -8.44962,-6.57087 -1.563,-2.8365 -2.51227,-6.33989 -3.19721,-10.09597 h 58.45053 c 0,0 4.21053,-24.046416 -11.87425,-40.142413 -9.48685,-9.493461 -21.46152,-15.024918 -35.38828,-15.024918 z m -10.72912,40.847646 c 0.68374,-2.817031 1.5035,-5.444001 2.51069,-7.514236 1.7354,-3.567055 5.02127,-6.570869 8.44601,-6.571142 3.42469,-2.19e-4 6.10001,2.38172 8.44968,6.571142 1.07507,1.916818 2.05399,4.933375 2.51063,7.280746 z M 536.98486,48.359149 c -27.39727,0 -49.54192,22.303859 -49.54192,49.770371 0,27.46618 22.14465,49.76643 49.54192,49.76643 27.39727,0 49.54547,-22.30025 49.54547,-49.76643 0,-27.466512 -22.1482,-49.770371 -49.54547,-49.770371 z m 0,27.468208 c 6.62102,0 11.87436,10.094442 11.87436,22.301835 0,12.207168 -5.25334,22.301558 -11.87436,22.301558 -6.62102,0 -11.87075,-10.09439 -11.87075,-22.301558 0,-12.442141 5.24973,-22.301835 11.87075,-22.301835 z M 652.74056,18.780669 V 49.53278 c -3.88149,-0.939375 -7.99314,-1.408215 -11.8743,-1.408215 -13.69869,0 -26.08095,5.575267 -35.15703,14.553234 -8.9608,8.863873 -14.38511,21.597481 -14.38511,35.213418 0,13.615713 5.63828,26.362233 14.38511,35.213033 5.63745,5.70445 18.0337,14.55712 35.15703,14.55712 17.12315,0 29.52285,-8.85267 35.16031,-14.55712 8.74688,-8.8508 14.15752,-21.36263 14.15752,-35.213033 V 18.780177 C 690.18409,8.4510411 681.73447,-1.0937912e-4 671.46041,5.4703899e-5 660.95817,2.1878691e-4 652.74056,8.4513693 652.74056,18.780669 Z m -12.10205,57.046688 c 6.62113,0 11.75999,10.094989 11.87425,22.301835 0.11431,12.208758 -5.25312,22.301558 -11.87425,22.301558 -6.62097,0 -11.87064,-10.09439 -11.87064,-22.301558 0,-12.442141 5.47802,-22.301835 11.87064,-22.301835 z M 846.57675,48.359149 c -27.39705,0 -49.54547,22.303859 -49.54547,49.770371 0,27.46618 22.14842,49.76643 49.54547,49.76643 27.39733,0 49.54208,-22.30025 49.54208,-49.76643 0,-27.70126 -22.14475,-49.770371 -49.54208,-49.770371 z m 0,27.468208 c 6.62124,0 11.87075,10.094442 11.87075,22.301835 0,12.207168 -5.24951,22.301558 -11.87075,22.301558 -6.62097,0 -11.87425,-10.09439 -11.87425,-22.301558 0,-12.442141 5.25328,-22.301835 11.87425,-22.301835 z"
     sodipodi:nodetypes="ccccccccccccccccccccccccccccccccccccccccccccccccccccccccccccccccccccccccccccccccccccccccccccccccccccccccccccccccccccccccccccccccccccccccccccccccccccccccccccccccccccccc" /></g><path
   style="display:inline;fill:#91f700;fill-opacity:1"
   d="m 658.42421,258.38957 c -12.8392,-4.07769 -22.60332,-14.83739 -22.60474,-24.90958 -6.7e-4,-4.80246 1.35935,-6.91212 5.72513,-8.88082 2.23087,-1.00598 3.43626,-1.16807 4.89614,-0.65841 2.38676,0.83325 6.04937,6.16683 8.10354,11.80058 1.65808,4.54744 3.52886,6.2914 7.42761,6.92408 2.78527,0.45199 5.09842,-0.60905 5.61237,-2.57439 0.50329,-1.92459 -3.54119,-11.68969 -6.98462,-16.86384 -1.55034,-2.32958 -5.95523,-7.5335 -9.78864,-11.56427 -9.25749,-9.73411 -10.31721,-11.79677 -10.31721,-20.08158 0,-5.27776 0.28852,-6.99979 1.57805,-9.4183 5.77083,-10.82326 19.39885,-9.86324 31.5405,2.22186 4.32553,4.30538 5.33318,5.77729 6.35034,9.27619 1.42547,4.90345 0.9861,9.47551 -1.17454,12.22232 -1.80637,2.29642 -5.04415,2.45298 -7.15133,0.34579 -1.82177,-1.82177 -4.20489,-6.90229 -4.22649,-9.01034 -0.009,-0.84633 -0.95265,-2.54172 -2.09775,-3.76755 -2.76229,-2.95705 -6.45637,-3.10169 -8.63035,-0.33793 -0.81804,1.03997 -1.48025,2.41243 -1.47158,3.04992 0.0429,3.15316 3.29379,7.65811 11.25246,15.59306 9.10188,9.07476 14.8895,16.95646 17.42234,23.7261 1.25571,3.35618 1.46072,4.97605 1.07201,8.47065 -0.93436,8.40015 -3.91457,12.34782 -10.91144,14.45357 -4.04232,1.21656 -11.76404,1.2081 -15.6218,-0.0171 z M 508.98565,254.836 c -1.74542,-1.98793 -2.19488,-3.27205 -2.57455,-7.3557 -0.25299,-2.72103 -1.58605,-11.24452 -2.96234,-18.94108 -1.3763,-7.69657 -2.96726,-17.58695 -3.53546,-21.97862 -0.5682,-4.39167 -1.52944,-8.94468 -2.13609,-10.1178 -4.67585,-9.0421 -1.85666,-17.06114 5.99804,-17.06114 2.64452,0 3.89509,0.39699 5.24475,1.66493 2.12855,1.99967 1.98411,1.3276 5.57332,25.93264 1.58082,10.83701 2.9736,19.80304 3.09506,19.9245 0.12146,0.12146 0.79626,-1.9636 1.49954,-4.63346 4.58354,-17.40034 14.85969,-37.29062 22.13143,-42.83704 5.34714,-4.07846 10.25663,-2.80141 11.01675,2.86568 0.33873,2.52546 -0.1858,4.04987 -4.03704,11.73262 -2.4345,4.85651 -7.02671,15.17263 -10.20492,22.92471 -7.59081,18.51499 -15.00832,33.12356 -18.85911,37.14247 -3.95748,4.13025 -7.07351,4.3544 -10.24938,0.73729 z m 92.02827,0.34596 c -5.00206,-1.31972 -8.88128,-4.2765 -12.21007,-9.30664 -1.63922,-2.47703 -2.3682,-2.98353 -4.29397,-2.98353 -4.92038,0 -7.97362,-5.35315 -4.95543,-8.68821 0.96974,-1.07155 1.02488,-1.83005 0.35881,-4.93582 -1.17017,-5.45632 -0.97976,-18.07377 0.35056,-23.23026 2.53355,-9.82028 10.87361,-21.119 17.87485,-24.21598 9.51647,-4.20959 21.78985,-1.4215 25.46638,5.78508 3.23372,6.33862 1.16145,17.82897 -4.76815,26.43848 -3.82403,5.55233 -12.79007,14.92559 -16.96936,17.74009 l -3.502,2.35839 1.46357,1.46357 c 3.58012,3.58013 10.31963,2.3749 16.46581,-2.94459 5.86569,-5.07671 10.41782,-6.11844 13.45676,-3.0795 2.98222,2.98221 1.96322,8.44165 -2.96005,15.85886 -2.71697,4.0933 -6.1236,6.57104 -11.80746,8.58791 -3.82016,1.35554 -10.9657,1.94485 -13.97025,1.15215 z m -3.87766,-36.64689 c 3.46865,-2.29755 5.05445,-4.23888 7.94859,-9.73064 3.99392,-7.57867 4.44301,-13.27613 1.04647,-13.27613 -1.95899,0 -6.5189,3.138 -9.21374,6.34064 -3.73818,4.44257 -6.76529,15.42107 -4.87882,17.69413 1.20439,1.4512 1.42033,1.40765 5.0975,-1.028 z M 313.45248,253.118 c -4.4121,-5.07745 -0.47679,-16.92996 11.57297,-34.8559 8.10913,-12.06363 11.69241,-19.48778 11.81378,-24.47686 0.12393,-5.09407 -1.58985,-5.25577 -3.88005,-0.36611 -2.06411,4.40696 -4.39662,6.41494 -7.45173,6.41494 -8.88121,0 -10.22073,-14.02585 -1.98764,-20.81226 6.73464,-5.55126 19.52214,-5.848 23.52157,-0.54584 l 1.32292,1.75384 3.33386,-2.39515 c 6.43914,-4.62605 14.56369,-5.89595 20.39225,-3.18737 3.37357,1.56772 7.84655,6.03518 8.93324,8.9222 l 0.76596,2.03494 3.46857,-3.11854 c 1.90771,-1.7152 5.37671,-4.08412 7.7089,-5.26427 3.88057,-1.96368 4.85916,-2.14573 11.5342,-2.14573 6.94466,0 7.44287,0.10353 10.40562,2.16248 4.20681,2.9235 6.34107,7.2598 6.34107,12.88354 0,3.36762 -0.81376,6.66008 -3.64278,14.73874 -7.1471,20.40951 -8.40567,24.24774 -8.88903,27.10869 -0.46314,2.7413 -0.29813,3.10982 3.04557,6.80205 4.3073,4.75628 4.97326,6.90911 3.23631,10.46199 -1.74949,3.57851 -5.09809,5.14204 -10.97316,5.12359 -6.15759,-0.0193 -10.04325,-1.79413 -12.69044,-5.79644 -1.88756,-2.85381 -2.01886,-3.53247 -1.98931,-10.28254 0.0382,-8.72572 1.81006,-15.65894 5.98848,-23.4327 5.17052,-9.61953 6.41957,-18.17789 2.92584,-20.04768 -5.60161,-2.99789 -16.46164,13.57321 -23.99413,36.61212 -4.99103,15.26561 -12.82871,24.57643 -19.03093,22.60792 -2.76159,-0.8765 -3.81838,-4.33005 -3.39286,-11.08773 0.44855,-7.12334 1.79896,-11.30794 7.65464,-23.71987 2.32761,-4.9337 4.74106,-10.95457 5.36321,-13.37972 1.36653,-5.32673 1.46387,-10.56782 0.2155,-11.60387 -2.46265,-2.04382 -11.69609,6.07538 -18.05936,15.88005 -4.72997,7.28805 -6.99734,11.76667 -10.18212,20.11222 -1.36861,3.58637 -3.50647,8.30862 -4.75081,10.4939 -2.59544,4.55804 -8.57521,11.17437 -11.43661,12.65406 -2.66118,1.37615 -5.87823,1.26493 -7.1935,-0.24869 z m 126.99059,0.27217 c -5.95672,-2.21468 -10.61011,-7.51381 -13.24908,-15.08761 -1.74387,-5.0049 -1.74598,-19.00532 -0.004,-25.55117 3.32438,-12.49098 11.51169,-23.74029 20.49404,-28.15865 4.45681,-2.19228 5.23634,-2.34057 12.30454,-2.34057 6.95237,0 7.91341,0.17476 12.21087,2.22048 4.48261,2.13385 7.86654,4.76528 10.08043,7.8388 0.57355,0.79625 1.92639,2.01174 3.0063,2.7011 4.60488,2.93948 5.22186,7.26339 1.36178,9.5436 -1.93756,1.14454 -2.07128,1.54587 -2.46357,7.39384 -1.20181,17.91578 -10.31383,33.99946 -22.50024,39.71532 -4.2698,2.00268 -5.8071,2.3323 -11.73118,2.51532 -4.54499,0.14041 -7.71499,-0.12307 -9.51004,-0.79046 z m 14.97471,-16.92292 c 6.89534,-3.95487 12.47604,-12.4888 12.47604,-19.0782 0,-2.1824 -0.2218,-2.48478 -1.82266,-2.48478 -4.18492,0 -9.46614,-4.11606 -12.75947,-9.94445 l -1.7669,-3.12697 -2.55111,4.56223 c -7.10852,12.71237 -9.02855,22.2911 -5.76215,28.74653 2.05625,4.06379 6.55838,4.55354 12.18625,1.32564 z m 15.34656,-33.04503 c 1.72681,-1.72682 1.76371,-2.30663 0.32397,-5.09078 -1.0211,-1.97459 -4.82846,-4.94697 -6.34481,-4.95334 -1.00361,-0.004 0.0604,7.80836 1.32668,9.74089 1.38533,2.11427 2.79223,2.20515 4.69416,0.30323 z m 81.5763,48.09934 c -3.13681,-3.72789 -3.59732,-6.45877 -3.143,-18.63842 0.60459,-16.20825 4.07057,-33.82303 8.42649,-42.82502 2.64377,-5.46366 7.66869,-10.31765 10.68097,-10.31765 4.54285,0 5.53497,5.19901 2.64626,13.86723 -3.23778,9.71571 -5.60838,24.75595 -6.81105,43.21275 -0.89342,13.71086 -2.35366,16.83577 -7.8672,16.83577 -1.4886,0 -2.68084,-0.64719 -3.93247,-2.13466 z m 13.25862,-75.61313 c -1.93861,-2.06356 -2.97847,-5.50938 -2.97847,-9.8699 0,-3.74615 2.43081,-7.75902 6.64894,-10.97635 7.32401,-5.58629 14.14046,-0.89028 13.23307,9.11659 -0.43678,4.81682 -2.88108,8.94461 -6.92304,11.69119 -3.41576,2.32107 -7.82016,2.33804 -9.9805,0.0385 z"
   id="path1"
   sodipodi:nodetypes="ssssssssssssssscssssssssssssssssssssssssssssssssssscssssssssssssssssssscssscssssssssssssssssssssssssscscsssssssssccsssscssssscsssssssssssssssss" /></svg>
